<svg xmlns="http://www.w3.org/2000/svg" width="45.623" height="43.809"><path d="M8.125 43.32c0-.235 1.125-3.698 2.5-7.695 1.375-3.997 2.5-7.62 2.5-8.054 0-.433-2.953-3.017-6.563-5.742L0 16.875l8.685-.625 8.685-.625 2.493-7.813C21.235 3.516 22.703 0 23.125 0c.423 0 1.891 3.516 3.263 7.812l2.495 7.813 8.37.37c4.605.203 8.37.765 8.37 1.25-.002.484-2.814 2.796-6.25 5.138-3.437 2.342-6.248 4.787-6.248 5.433 0 .646.896 4.256 1.99 8.022 1.095 3.766 1.697 7.142 1.336 7.502-.36.36-3.305-1.369-6.545-3.842C26.666 37.024 23.5 35 22.87 35c-.63 0-3.723 1.969-6.875 4.375-5.067 3.869-7.87 5.274-7.87 3.946z" fill="#fefefe"/></svg>